<?xml version="1.0" encoding="UTF-8" standalone="no"?>
<!-- Created with Inkscape (http://www.inkscape.org/) -->

<svg
   xmlns:dc="http://purl.org/dc/elements/1.1/"
   xmlns:cc="http://creativecommons.org/ns#"
   xmlns:rdf="http://www.w3.org/1999/02/22-rdf-syntax-ns#"
   xmlns:svg="http://www.w3.org/2000/svg"
   xmlns="http://www.w3.org/2000/svg"
   xmlns:sodipodi="http://sodipodi.sourceforge.net/DTD/sodipodi-0.dtd"
   xmlns:inkscape="http://www.inkscape.org/namespaces/inkscape"
   width="15.636197mm"
   height="14.688099mm"
   viewBox="0 0 55.403847 52.044444"
   id="svg3383"
   version="1.1"
   inkscape:version="0.91 r"
   sodipodi:docname="rain.svg">
  <defs
     id="defs3385" />
  <sodipodi:namedview
     id="base"
     pagecolor="#ffffff"
     bordercolor="#666666"
     borderopacity="1.0"
     inkscape:pageopacity="0.0"
     inkscape:pageshadow="2"
     inkscape:zoom="7.9195959"
     inkscape:cx="42.072366"
     inkscape:cy="7.5669126"
     inkscape:document-units="px"
     inkscape:current-layer="layer1"
     showgrid="false"
     fit-margin-top="2"
     fit-margin-left="2"
     fit-margin-right="2"
     fit-margin-bottom="2"
     inkscape:window-width="1920"
     inkscape:window-height="1148"
     inkscape:window-x="1366"
     inkscape:window-y="0"
     inkscape:window-maximized="1" />
  <metadata
     id="metadata3388">
    <rdf:RDF>
      <cc:Work
         rdf:about="">
        <dc:format>image/svg+xml</dc:format>
        <dc:type
           rdf:resource="http://purl.org/dc/dcmitype/StillImage" />
        <dc:title></dc:title>
      </cc:Work>
    </rdf:RDF>
  </metadata>
  <g
     inkscape:label="Layer 1"
     inkscape:groupmode="layer"
     id="layer1"
     transform="translate(-177.87338,-242.20873)">
    <path
       style="fill:#505050;fill-opacity:1;fill-rule:evenodd;stroke:#000000;stroke-width:0.77976525px;stroke-linecap:butt;stroke-linejoin:miter;stroke-opacity:1"
       d="m 222.32392,274.64321 -34.8875,-0.0986 c 0,0 -2.34007,-3.19403 -2.06376,-7.20117 0.36376,-5.27555 1.05294,-7.81721 5.69993,-10.06191 5.69234,-2.74965 7.17405,5.1296 7.17405,5.1296 0,0 -0.49138,-12.824 6.97749,-12.72535 5.94896,0.0786 6.9775,13.11993 6.9775,13.11993 0,0 1.72005,-10.25197 6.38786,-9.56867 4.71719,0.69052 7.57265,6.51196 7.17404,11.64024 -0.26755,3.44231 -3.43961,9.76597 -3.43961,9.76597 z"
       id="path3399"
       inkscape:connector-curvature="0"
       sodipodi:nodetypes="ccsscscssc" />
    <path
       style="fill:none;fill-rule:evenodd;stroke:#000000;stroke-width:0.77976525px;stroke-linecap:butt;stroke-linejoin:miter;stroke-opacity:1"
       d="m 188.81227,286.77669 31.25134,-0.19729"
       id="path3401"
       inkscape:connector-curvature="0" />
    <path
       style="fill:#0093a8;fill-opacity:1;fill-rule:evenodd;stroke:#000000;stroke-width:0.77976525px;stroke-linecap:butt;stroke-linejoin:miter;stroke-opacity:1"
       d="m 197.3444,277.06979 c 0,0 1.76894,6.6093 -0.58966,6.412 -2.98983,-0.2501 0.58966,-6.412 0.58966,-6.412 z"
       id="path3403-7"
       inkscape:connector-curvature="0"
       sodipodi:nodetypes="csc" />
    <path
       style="fill:#0093a8;fill-opacity:1;fill-rule:evenodd;stroke:#000000;stroke-width:0.77976525px;stroke-linecap:butt;stroke-linejoin:miter;stroke-opacity:1"
       d="m 192.52893,276.97114 c 0,0 1.76895,6.6093 -0.58965,6.41201 -2.98983,-0.2501 0.58965,-6.41201 0.58965,-6.41201 z"
       id="path3403-5"
       inkscape:connector-curvature="0"
       sodipodi:nodetypes="csc" />
    <path
       style="fill:#0093a8;fill-opacity:1;fill-rule:evenodd;stroke:#000000;stroke-width:0.77976525px;stroke-linecap:butt;stroke-linejoin:miter;stroke-opacity:1"
       d="m 202.55295,276.77384 c 0,0 1.76894,6.6093 -0.58965,6.412 -2.98983,-0.25009 0.58965,-6.412 0.58965,-6.412 z"
       id="path3403-35"
       inkscape:connector-curvature="0"
       sodipodi:nodetypes="csc" />
    <path
       style="fill:#0093a8;fill-opacity:1;fill-rule:evenodd;stroke:#000000;stroke-width:0.77976525px;stroke-linecap:butt;stroke-linejoin:miter;stroke-opacity:1"
       d="m 206.87704,276.8725 c 0,0 1.76894,6.60929 -0.58965,6.412 -2.98983,-0.2501 0.58965,-6.412 0.58965,-6.412 z"
       id="path3403"
       inkscape:connector-curvature="0"
       sodipodi:nodetypes="csc" />
    <path
       style="fill:#0093a8;fill-opacity:1;fill-rule:evenodd;stroke:#000000;stroke-width:0.77976525px;stroke-linecap:butt;stroke-linejoin:miter;stroke-opacity:1"
       d="m 210.70975,276.77385 c 0,0 1.76894,6.6093 -0.58966,6.412 -2.98983,-0.2501 0.58966,-6.412 0.58966,-6.412 z"
       id="path3403-6"
       inkscape:connector-curvature="0"
       sodipodi:nodetypes="csc" />
    <path
       style="fill:#0093a8;fill-opacity:1;fill-rule:evenodd;stroke:#000000;stroke-width:0.77976525px;stroke-linecap:butt;stroke-linejoin:miter;stroke-opacity:1"
       d="m 215.72176,276.87251 c 0,0 1.76894,6.60929 -0.58965,6.412 -2.98983,-0.2501 0.58965,-6.412 0.58965,-6.412 z"
       id="path3403-2"
       inkscape:connector-curvature="0"
       sodipodi:nodetypes="csc" />
  </g>
</svg>
